<svg xmlns="http://www.w3.org/2000/svg" width="18" height="18" viewBox="0 0 18 18" fill=""><path d="M7.3125 0.125C6.30469 0.125 5.35547 0.318359 4.46484 0.705078C3.57422 1.08008 2.79492 1.60156 2.12695 2.26953C1.4707 2.92578 0.949219 3.69922 0.5625 4.58984C0.1875 5.48047 0 6.42969 0 7.4375C0 8.44531 0.1875 9.39453 0.5625 10.2852C0.949219 11.1758 1.4707 11.9551 2.12695 12.623C2.79492 13.2793 3.57422 13.8008 4.46484 14.1875C5.35547 14.5625 6.30469 14.75 7.3125 14.75C8.12109 14.75 8.88867 14.627 9.61523 14.3809C10.3418 14.123 11.0098 13.7715 11.6191 13.3262L16.084 17.791L17.666 16.209L13.2012 11.7441C13.6465 11.1348 13.9922 10.4668 14.2383 9.74023C14.4961 9.01367 14.625 8.24609 14.625 7.4375C14.625 6.42969 14.4316 5.48047 14.0449 4.58984C13.6699 3.69922 13.1484 2.92578 12.4805 2.26953C11.8242 1.60156 11.0508 1.08008 10.1602 0.705078C9.26953 0.318359 8.32031 0.125 7.3125 0.125ZM7.3125 13.625C6.45703 13.625 5.6543 13.4668 4.9043 13.1504C4.1543 12.8223 3.49805 12.377 2.93555 11.8145C2.37305 11.252 1.92773 10.5957 1.59961 9.8457C1.2832 9.0957 1.125 8.29297 1.125 7.4375C1.125 6.58203 1.2832 5.7793 1.59961 5.0293C1.92773 4.2793 2.37305 3.62305 2.93555 3.06055C3.49805 2.49805 4.1543 2.05859 4.9043 1.74219C5.6543 1.41406 6.45703 1.25 7.3125 1.25C8.16797 1.25 8.9707 1.41406 9.7207 1.74219C10.4707 2.05859 11.127 2.49805 11.6895 3.06055C12.252 3.62305 12.6914 4.2793 13.0078 5.0293C13.3359 5.7793 13.5 6.58203 13.5 7.4375C13.5 8.29297 13.3359 9.0957 13.0078 9.8457C12.6914 10.5957 12.252 11.252 11.6895 11.8145C11.127 12.377 10.4707 12.8223 9.7207 13.1504C8.9707 13.4668 8.16797 13.625 7.3125 13.625Z"/></svg>