<svg width="160" height="37" viewBox="0 0 160 37" fill="none" xmlns="http://www.w3.org/2000/svg">
<path d="M17.892 7.12C19.332 7.12 20.556 7.636 21.564 8.668C22.596 9.7 23.112 10.924 23.112 12.34V22.78C23.112 24.196 22.596 25.42 21.564 26.452C20.556 27.484 19.332 28 17.892 28H7.452V36.28H1.944V7.12H17.892ZM7.452 12.628V22.492H17.604V12.628H7.452ZM25.7783 0.243999H31.3223V22.492H35.5343V28H30.9983C29.5823 28 28.3583 27.484 27.3263 26.452C26.2943 25.42 25.7783 24.196 25.7783 22.78V0.243999ZM54.2419 7.12C55.6819 7.12 56.9059 7.636 57.9139 8.668C58.9459 9.7 59.4619 10.924 59.4619 12.34V28H43.5139C42.0739 28 40.8379 27.484 39.8059 26.452C38.7979 25.42 38.2939 24.196 38.2939 22.78V14.788H53.9539V12.628H38.2939V7.12H54.2419ZM53.9539 22.492V19.612H43.8019V22.492H53.9539ZM84.134 30.268C84.134 31.708 83.618 32.932 82.586 33.94C81.578 34.972 80.354 35.488 78.914 35.488H66.242V29.944H78.626V28H68.186C66.746 28 65.51 27.484 64.478 26.452C63.446 25.42 62.93 24.196 62.93 22.78V7.192H68.438V22.492H78.626V7.192H84.134V30.268ZM92.2044 7.12H102.932C104.372 7.12 105.596 7.636 106.604 8.668C107.636 9.7 108.152 10.924 108.152 12.34V22.78C108.152 24.196 107.636 25.42 106.604 26.452C105.596 27.484 104.372 28 102.932 28H92.2044C90.7884 28 89.5644 27.484 88.5324 26.452C87.5004 25.42 86.9844 24.196 86.9844 22.78V12.34C86.9844 10.924 87.5004 9.7 88.5324 8.668C89.5644 7.636 90.7884 7.12 92.2044 7.12ZM92.4924 12.628V22.492H102.644V12.628H92.4924ZM112.018 12.628V7.12H133.186V12.772L120.622 22.492H133.186V28H112.018V22.348L124.582 12.628H112.018ZM152.047 7.12C153.487 7.12 154.711 7.636 155.719 8.668C156.751 9.7 157.267 10.924 157.267 12.34V28H141.319C139.879 28 138.643 27.484 137.611 26.452C136.603 25.42 136.099 24.196 136.099 22.78V14.788H151.759V12.628H136.099V7.12H152.047ZM151.759 22.492V19.612H141.607V22.492H151.759Z" fill="white"/>
</svg>
