<svg xmlns="http://www.w3.org/2000/svg" width="16" height="16" viewBox="0 0 16 16" fill=""><path d="M15.028 4.01196C14.1149 4.01196 13.2724 3.70946 12.5959 3.19915C11.8199 2.61415 11.2624 1.75603 11.0655 0.766963C11.0168 0.522588 10.9905 0.2704 10.988 0.0119629H8.3796V7.13946L8.37648 11.0435C8.37648 12.0873 7.69679 12.9723 6.7546 13.2835C6.48117 13.3738 6.18585 13.4166 5.87835 13.3998C5.48585 13.3782 5.11804 13.2598 4.79835 13.0685C4.11804 12.6617 3.65679 11.9235 3.64429 11.0792C3.6246 9.75946 4.69148 8.68353 6.01023 8.68353C6.27054 8.68353 6.52054 8.72602 6.7546 8.80321V6.85509V6.15478C6.50773 6.11821 6.25648 6.09915 6.00242 6.09915C4.55898 6.09915 3.20898 6.69915 2.24398 7.78009C1.5146 8.59696 1.0771 9.63915 1.0096 10.732C0.921165 12.1676 1.44648 13.5323 2.46523 14.5392C2.61492 14.687 2.7721 14.8242 2.93648 14.9507C3.80992 15.6229 4.87773 15.9873 6.00242 15.9873C6.25648 15.9873 6.50773 15.9685 6.7546 15.932C7.80523 15.7763 8.7746 15.2954 9.5396 14.5392C10.4796 13.6101 10.999 12.3766 11.0046 11.0638L10.9912 5.23384C11.4396 5.57978 11.9299 5.86603 12.4562 6.08821C13.2746 6.43353 14.1424 6.60853 15.0355 6.60821V4.71415V4.01134C15.0362 4.01196 15.0287 4.01196 15.028 4.01196Z"/></svg>