<svg xmlns="http://www.w3.org/2000/svg" width="16" height="16" viewBox="0 0 16 16" fill=""><path d="M6.23438 15.5V9H4V6H6.23438V3.90625C6.23438 3.33333 6.31771 2.83333 6.48438 2.40625C6.66146 1.97917 6.90104 1.625 7.20312 1.34375C7.51562 1.0625 7.88542 0.854167 8.3125 0.71875C8.73958 0.572917 9.20833 0.5 9.71875 0.5C10.1979 0.5 10.6302 0.515625 11.0156 0.546875C11.401 0.567708 11.651 0.588542 11.7656 0.609375V2.98438H10.3594C9.80729 2.98438 9.44271 3.10417 9.26562 3.34375C9.08854 3.58333 9 3.89583 9 4.28125V6H12L11 9H9V15.5H6.23438Z"/></svg>