<svg xmlns="http://www.w3.org/2000/svg" width="16" height="16" viewBox="0 0 16 16" fill=""><path d="M15.8438 4.58333C15.8438 4.58333 15.7969 4.36667 15.7031 3.93333C15.6094 3.5 15.4427 3.15556 15.2031 2.9C14.901 2.55556 14.5938 2.35556 14.2812 2.3C13.9792 2.23333 13.75 2.18889 13.5938 2.16667C13.0417 2.12222 12.4375 2.08889 11.7812 2.06667C11.125 2.04444 10.5156 2.02778 9.95312 2.01667C9.40104 2.00556 8.9375 2 8.5625 2C8.1875 2 8 2 8 2C8 2 7.8125 2 7.4375 2C7.0625 2 6.59375 2.00556 6.03125 2.01667C5.47917 2.02778 4.875 2.04444 4.21875 2.06667C3.5625 2.08889 2.95833 2.12222 2.40625 2.16667C2.25 2.18889 2.01562 2.23333 1.70312 2.3C1.40104 2.35556 1.09896 2.55556 0.796875 2.9C0.557292 3.15556 0.390625 3.5 0.296875 3.93333C0.203125 4.36667 0.15625 4.58333 0.15625 4.58333C0.15625 4.58333 0.130208 4.87222 0.078125 5.45C0.0260417 6.02778 0 6.66111 0 7.35V8.65C0 9.33889 0.0260417 9.97222 0.078125 10.55C0.130208 11.1167 0.15625 11.4 0.15625 11.4C0.15625 11.4 0.203125 11.6222 0.296875 12.0667C0.390625 12.5 0.557292 12.8444 0.796875 13.1C1.09896 13.4444 1.42188 13.6444 1.76562 13.7C2.11979 13.7556 2.38542 13.8 2.5625 13.8333C2.88542 13.8667 3.34896 13.8944 3.95312 13.9167C4.55729 13.9389 5.15625 13.9556 5.75 13.9667C6.35417 13.9778 6.88021 13.9889 7.32812 14C7.77604 14 8 14 8 14C8 14 8.1875 14 8.5625 14C8.9375 14 9.40104 13.9944 9.95312 13.9833C10.5156 13.9722 11.125 13.9556 11.7812 13.9333C12.4375 13.9 13.0417 13.8611 13.5938 13.8167C13.75 13.8056 13.9792 13.7722 14.2812 13.7167C14.5938 13.65 14.901 13.4444 15.2031 13.1C15.4427 12.8444 15.6094 12.5 15.7031 12.0667C15.7969 11.6222 15.8438 11.4 15.8438 11.4C15.8438 11.4 15.8698 11.1167 15.9219 10.55C15.974 9.97222 16 9.33889 16 8.65V7.35C16 6.66111 15.974 6.02778 15.9219 5.45C15.8698 4.87222 15.8438 4.58333 15.8438 4.58333ZM6.34375 10.2167V5.41667L10.6719 7.81667L6.34375 10.2167Z"/></svg>