<svg xmlns="http://www.w3.org/2000/svg" width="16" height="16" viewBox="0 0 16 16" fill=""><path d="M8 1.4375C9.07292 1.4375 9.77083 1.44271 10.0938 1.45312C10.4271 1.45312 10.8073 1.46354 11.2344 1.48438C11.6927 1.50521 12.125 1.57812 12.5312 1.70312C12.9479 1.81771 13.3177 2.03646 13.6406 2.35938C13.9635 2.68229 14.1823 3.05208 14.2969 3.46875C14.4219 3.875 14.4948 4.30729 14.5156 4.76562C14.5365 5.19271 14.5469 5.57292 14.5469 5.90625C14.5573 6.22917 14.5625 6.92708 14.5625 8C14.5625 9.07292 14.5573 9.77604 14.5469 10.1094C14.5469 10.4323 14.5365 10.8073 14.5156 11.2344C14.4948 11.6927 14.4219 12.1302 14.2969 12.5469C14.1823 12.9531 13.9635 13.3177 13.6406 13.6406C13.3177 13.9635 12.9479 14.1875 12.5312 14.3125C12.125 14.4271 11.6927 14.4948 11.2344 14.5156C10.8073 14.5365 10.4271 14.5521 10.0938 14.5625C9.77083 14.5625 9.07292 14.5625 8 14.5625C6.92708 14.5625 6.22396 14.5625 5.89062 14.5625C5.56771 14.5521 5.19271 14.5365 4.76562 14.5156C4.30729 14.4948 3.86979 14.4271 3.45312 14.3125C3.04688 14.1875 2.68229 13.9635 2.35938 13.6406C2.03646 13.3177 1.8125 12.9531 1.6875 12.5469C1.57292 12.1302 1.50521 11.6927 1.48438 11.2344C1.46354 10.8073 1.44792 10.4323 1.4375 10.1094C1.4375 9.77604 1.4375 9.07292 1.4375 8C1.4375 6.92708 1.4375 6.22917 1.4375 5.90625C1.44792 5.57292 1.46354 5.19271 1.48438 4.76562C1.50521 4.30729 1.57292 3.875 1.6875 3.46875C1.8125 3.05208 2.03646 2.68229 2.35938 2.35938C2.68229 2.03646 3.04688 1.81771 3.45312 1.70312C3.86979 1.57812 4.30729 1.50521 4.76562 1.48438C5.19271 1.46354 5.56771 1.45312 5.89062 1.45312C6.22396 1.44271 6.92708 1.4375 8 1.4375ZM8 0C6.91667 0 6.20312 0.00520833 5.85938 0.015625C5.51562 0.015625 5.13021 0.0260417 4.70312 0.046875C4.04688 0.078125 3.4375 0.1875 2.875 0.375C2.3125 0.5625 1.80208 0.885417 1.34375 1.34375C0.885417 1.80208 0.5625 2.3125 0.375 2.875C0.1875 3.4375 0.078125 4.04688 0.046875 4.70312C0.0260417 5.13021 0.0104167 5.51562 0 5.85938C0 6.20312 0 6.91667 0 8C0 9.08333 0 9.79688 0 10.1406C0.0104167 10.4844 0.0260417 10.8698 0.046875 11.2969C0.078125 11.9531 0.1875 12.5625 0.375 13.125C0.5625 13.6875 0.885417 14.1979 1.34375 14.6562C1.80208 15.1146 2.3125 15.4375 2.875 15.625C3.4375 15.8125 4.04688 15.9219 4.70312 15.9531C5.13021 15.974 5.51562 15.9844 5.85938 15.9844C6.20312 15.9948 6.91667 16 8 16C9.08333 16 9.79688 15.9948 10.1406 15.9844C10.4844 15.9844 10.8698 15.974 11.2969 15.9531C11.9531 15.9219 12.5625 15.8125 13.125 15.625C13.6875 15.4375 14.1979 15.1146 14.6562 14.6562C15.1146 14.1979 15.4375 13.6875 15.625 13.125C15.8125 12.5625 15.9219 11.9531 15.9531 11.2969C15.974 10.8698 15.9844 10.4844 15.9844 10.1406C15.9948 9.79688 16 9.08333 16 8C16 6.91667 15.9948 6.20312 15.9844 5.85938C15.9844 5.51562 15.974 5.13021 15.9531 4.70312C15.9219 4.04688 15.8125 3.4375 15.625 2.875C15.4375 2.3125 15.1146 1.80208 14.6562 1.34375C14.1979 0.885417 13.6875 0.5625 13.125 0.375C12.5625 0.1875 11.9531 0.078125 11.2969 0.046875C10.8698 0.0260417 10.4844 0.015625 10.1406 0.015625C9.79688 0.00520833 9.08333 0 8 0ZM8 3.89062C7.4375 3.89062 6.90625 4 6.40625 4.21875C5.90625 4.42708 5.46875 4.71875 5.09375 5.09375C4.71875 5.46875 4.42188 5.90625 4.20312 6.40625C3.99479 6.90625 3.89062 7.4375 3.89062 8C3.89062 8.5625 3.99479 9.09375 4.20312 9.59375C4.42188 10.0938 4.71875 10.5312 5.09375 10.9062C5.46875 11.2812 5.90625 11.5781 6.40625 11.7969C6.90625 12.0052 7.4375 12.1094 8 12.1094C8.5625 12.1094 9.09375 12.0052 9.59375 11.7969C10.0938 11.5781 10.5312 11.2812 10.9062 10.9062C11.2812 10.5312 11.5729 10.0938 11.7812 9.59375C12 9.09375 12.1094 8.5625 12.1094 8C12.1094 7.4375 12 6.90625 11.7812 6.40625C11.5729 5.90625 11.2812 5.46875 10.9062 5.09375C10.5312 4.71875 10.0938 4.42708 9.59375 4.21875C9.09375 4 8.5625 3.89062 8 3.89062ZM8 10.6719C7.26042 10.6719 6.63021 10.4115 6.10938 9.89062C5.58854 9.36979 5.32812 8.73958 5.32812 8C5.32812 7.26042 5.58854 6.63021 6.10938 6.10938C6.63021 5.58854 7.26042 5.32812 8 5.32812C8.73958 5.32812 9.36979 5.58854 9.89062 6.10938C10.4115 6.63021 10.6719 7.26042 10.6719 8C10.6719 8.73958 10.4115 9.36979 9.89062 9.89062C9.36979 10.4115 8.73958 10.6719 8 10.6719ZM13.2344 3.73438C13.2344 3.99479 13.1406 4.21875 12.9531 4.40625C12.7656 4.59375 12.5365 4.6875 12.2656 4.6875C12.0052 4.6875 11.7812 4.59375 11.5938 4.40625C11.4062 4.21875 11.3125 3.99479 11.3125 3.73438C11.3125 3.46354 11.4062 3.23438 11.5938 3.04688C11.7812 2.85938 12.0052 2.76562 12.2656 2.76562C12.5365 2.76562 12.7656 2.85938 12.9531 3.04688C13.1406 3.23438 13.2344 3.46354 13.2344 3.73438Z"/></svg>