<svg xmlns="http://www.w3.org/2000/svg" width="14" height="14" viewBox="0 0 14 14" fill="none"><path d="M7.00235 13.9977H0L1.12009 10.7914C0.389436 9.66103 0.00470155 8.35638 0.00470155 7.00009C0.00470155 5.13095 0.732594 3.3737 2.05425 2.05201C3.37593 0.730334 5.13321 0.00244141 7.00235 0.00244141C8.87149 0.00244141 10.6287 0.730334 11.9505 2.05201C13.2721 3.3737 14 5.13095 14 7.00009C14 8.86923 13.2721 10.6265 11.9505 11.9482C10.6287 13.2698 8.87149 13.9977 7.00235 13.9977ZM1.54014 12.9044H7.00235C10.258 12.9044 12.9066 10.2557 12.9066 7.00009C12.9066 3.74446 10.258 1.09582 7.00235 1.09582C3.74672 1.09582 1.09808 3.74446 1.09808 7.00009C1.09808 8.22514 1.46994 9.40009 2.1734 10.3979L2.33544 10.6277L1.54014 12.9044ZM6.45566 7.00009C6.45566 7.30203 6.70041 7.54678 7.00235 7.54678C7.30429 7.54678 7.54904 7.30203 7.54904 7.00009C7.54904 6.69815 7.30429 6.4534 7.00235 6.4534C6.70041 6.4534 6.45566 6.69815 6.45566 7.00009ZM8.64242 7.00009C8.64242 7.30203 8.88718 7.54678 9.18912 7.54678C9.49105 7.54678 9.73581 7.30203 9.73581 7.00009C9.73581 6.69815 9.49105 6.4534 9.18912 6.4534C8.88718 6.4534 8.64242 6.69815 8.64242 7.00009ZM4.26889 7.00009C4.26889 7.30203 4.51365 7.54678 4.81559 7.54678C5.11752 7.54678 5.36228 7.30203 5.36228 7.00009C5.36228 6.69815 5.11752 6.4534 4.81559 6.4534C4.51365 6.4534 4.26889 6.69815 4.26889 7.00009Z" fill="#CCFF00"/></svg>